#!OML:ASF I:\Actors\actors\Patient Classification 1\Patient 1\Session 1\Subject1.ASF
:FULLY-SPECIFIED
:DEGREES
543
root 0.524385 17.5231 9.46177 2.47948 11.5814 -9.33515
lowerback 0.485158 -7.62004 -0.8653
upperback -5.95063 -10.1178 2.62375
thorax -5.83251 -4.9142 3.71053
lowerneck -5.56709 -11.8011 -10.6329
upperneck 41.2579 -18.5165 4.11817
head 17.67 -9.07117 0.487644
rclavicle -1.15593e-013 8.74653e-015
rhumerus -80.086 41.5983 -96.8312
rradius 120.875
rwrist -25.2207
rhand 11.2654 -47.2084
rfingers 7.12502
rthumb 36.3255 -73.4443
lclavicle -1.15593e-013 8.74653e-015
lhumerus -109.495 -83.7901 197.774
lradius 79.2103
lwrist 55.1053
lhand 28.6604 -3.93846
lfingers 7.12502
lthumb 52.4987 15.8663
rfemur 0.387205 17.3828 29.8545
rtibia 9.81464
rfoot -17.2885 -28.9892
rtoes 6.30429
lfemur 5.72212 -35.3363 -9.75009
ltibia -3.27205
lfoot -8.75341 31.513
ltoes -15.04
544
root 0.523173 17.5234 9.46505 2.48873 11.6058 -9.39616
lowerback 0.486481 -7.61154 -0.809057
upperback -5.93442 -10.1037 2.63575
thorax -5.82433 -4.90996 3.69141
lowerneck -5.6537 -11.7983 -10.6269
upperneck 41.2878 -18.4968 4.09493
head 17.702 -9.05981 0.472625
rclavicle 4.07509e-015 -3.10104e-014
rhumerus -81.7148 41.7156 -98.6441
rradius 120.007
rwrist -17.6716
rhand 9.23497 -41.2467
rfingers 7.12502
rthumb 34.4004 -67.9407
lclavicle 4.07509e-015 -3.10104e-014
lhumerus -109.99 -83.787 198.291
lradius 79.1908
lwrist 55.0274
lhand 28.0058 -3.74806
lfingers 7.12502
lthumb 51.9055 16.4136
rfemur 0.356742 17.3457 29.9213
rtibia 9.85316
rfoot -17.3149 -28.9564
rtoes 6.38035
lfemur 5.66902 -35.2484 -9.61918
ltibia -3.27863
lfoot -8.73187 31.4152
ltoes -15.0405
545
root 0.522808 17.5235 9.46682 2.50986 11.5908 -9.43368
lowerback 0.511125 -7.6125 -0.782438
upperback -5.94257 -10.1031 2.65925
thorax -5.84735 -4.90971 3.70607
lowerneck -5.73287 -11.7792 -10.746
upperneck 41.3602 -18.4905 4.19258
head 17.7985 -9.05695 0.523916
rclavicle 1.88845e-014 -3.89618e-014
rhumerus -82.2722 41.7052 -99.1573
rradius 119.847
rwrist -13.1513
rhand 7.0731 -38.5011
rfingers 7.12502
rthumb 32.3453 -65.6372
lclavicle 1.88845e-014 -3.89618e-014
lhumerus -109.275 -83.7161 197.559
lradius 79.1641
lwrist 54.7587
lhand 27.474 -3.9052
lfingers 7.12502
lthumb 51.4223 16.5374
rfemur 0.30805 17.3758 29.9568
rtibia 9.89531
rfoot -17.3148 -28.94
rtoes 6.46235
lfemur 5.61507 -35.1888 -9.53224
ltibia -3.2602
lfoot -8.73411 31.3687
ltoes -15.1429
546
root 0.524201 17.5239 9.46927 2.52711 11.5586 -9.48639
lowerback 0.539338 -7.61865 -0.711945
upperback -5.95775 -10.1077 2.67913
thorax -5.88777 -4.9138 3.69577
lowerneck -5.75275 -11.7481 -10.7791
upperneck 41.3562 -18.4554 4.24549
head 17.8106 -9.04034 0.557339
rclavicle -2.57426e-014 -6.36111e-015
rhumerus -82.6448 41.674 -99.5136
rradius 119.71
rwrist -9.11006
rhand 8.7681 -37.3373
rfingers 7.12502
rthumb 33.957 -64.1306
lclavicle -2.57426e-014 -6.36111e-015
lhumerus -108.364 -83.6337 196.611
lradius 79.058
lwrist 54.5088
lhand 22.001 -5.56448
lfingers 7.12502
lthumb 46.3944 17.364
rfemur 0.28048 17.4122 30.0036
rtibia 9.89975
rfoot -17.3387 -28.9159
rtoes 6.63507
lfemur 5.63377 -35.3398 -9.51854
ltibia -3.2325
lfoot -8.83962 31.5496
ltoes -14.9513
547
root 0.525943 17.5238 9.472 2.54476 11.5146 -9.49415
lowerback 0.569313 -7.62435 -0.673566
upperback -5.95787 -10.114 2.67886
thorax -5.91122 -4.91815 3.6805
lowerneck -5.75127 -11.7151 -10.7156
upperneck 41.2926 -18.4082 4.25337
head 17.7582 -9.01262 0.563926
rclavicle -8.12035e-014 -1.19271e-014
rhumerus -82.7783 41.5929 -99.6541
rradius 119.613
rwrist -5.94806
rhand 7.40364 -35.1556
rfingers 7.12502
rthumb 32.6598 -62.227
lclavicle -8.12035e-014 -1.19271e-014
lhumerus -107.947 -83.622 196.136
lradius 78.9796
lwrist 54.5017
lhand 21.9166 -5.64803
lfingers 7.12502
lthumb 46.3161 17.3137
rfemur 0.278112 17.3988 30.0038
rtibia 9.88648
rfoot -17.3538 -28.874
rtoes 6.66592
lfemur 5.72506 -35.6593 -9.63105
ltibia -3.20494
lfoot -9.08252 31.8938
ltoes -14.3336
548
root 0.525968 17.5236 9.47453 2.55742 11.4595 -9.45527
lowerback 0.587521 -7.62858 -0.718211
upperback -5.94423 -10.1222 2.66842
thorax -5.9008 -4.92065 3.69485
lowerneck -5.73027 -11.6824 -10.6966
upperneck 41.2456 -18.3891 4.33108
head 17.7326 -8.99482 0.60243
rclavicle -4.77083e-014 8.74653e-015
rhumerus -82.7562 41.4495 -99.6431
rradius 119.512
rwrist -3.37062
rhand 5.70222 -33.0823
rfingers 7.12502
rthumb 31.0395 -60.4762
lclavicle -4.77083e-014 8.74653e-015
lhumerus -107.564 -83.6749 195.68
lradius 78.9785
lwrist 54.7507
lhand 25.1929 -4.35663
lfingers 7.12502
lthumb 49.3382 17.2068
rfemur 0.287242 17.4109 29.9679
rtibia 9.887
rfoot -17.3521 -28.8464
rtoes 6.68853
lfemur 5.8214 -35.8063 -9.74213
ltibia -3.24628
lfoot -9.14269 32.0735
ltoes -14.2003
549
root 0.524614 17.5241 9.47717 2.59605 11.3742 -9.40438
lowerback 0.565475 -7.61805 -0.805807
upperback -5.94078 -10.112 2.66307
thorax -5.87112 -4.91237 3.73076
lowerneck -5.69848 -11.6668 -10.67
upperneck 41.2293 -18.3777 4.34693
head 17.7123 -8.98668 0.611082
rclavicle -1.59028e-014 0
rhumerus -82.6264 41.2866 -99.4908
rradius 119.371
rwrist -0.969996
rhand 4.19914 -30.9502
rfingers 7.12502
rthumb 29.6058 -58.6081
lclavicle -1.59028e-014 0
lhumerus -107.045 -83.7201 195.1
lradius 78.9989
lwrist 54.9635
lhand 25.0906 -4.57011
lfingers 7.12502
lthumb 49.2444 17.0405
rfemur 0.26149 17.4817 29.9181
rtibia 9.89704
rfoot -17.2956 -28.8429
rtoes 6.66435
lfemur 5.86096 -35.7091 -9.76986
ltibia -3.34841
lfoot -9.02941 32.0619
ltoes -14.4231
550
root 0.523534 17.525 9.47921 2.63088 11.2606 -9.38082
lowerback 0.558287 -7.58141 -0.85046
upperback -5.93156 -10.0653 2.65286
thorax -5.85419 -4.88779 3.7398
lowerneck -5.69786 -11.6836 -10.5862
upperneck 41.2154 -18.389 4.279
head 17.6813 -8.98803 0.567914
rclavicle -3.20043e-014 -2.46493e-014
rhumerus -82.4122 41.0516 -99.2198
rradius 119.23
rwrist 1.37358
rhand 3.49646 -29.1135
rfingers 7.12502
rthumb 28.9349 -56.8884
lclavicle -3.20043e-014 -2.46493e-014
lhumerus -106.468 -83.7464 194.454
lradius 79.0204
lwrist 55.0374
lhand 21.7436 -6.53061
lfingers 7.12502
lthumb 46.1558 16.4988
rfemur 0.226092 17.5244 29.8909
rtibia 9.91406
rfoot -17.1855 -28.8082
rtoes 6.37525
lfemur 5.8404 -35.5738 -9.76467
ltibia -3.32558
lfoot -9.14707 32.0359
ltoes -14.1673
551
root 0.523201 17.5258 9.48097 2.63828 11.1619 -9.4045
lowerback 0.557305 -7.52688 -0.812644
upperback -5.89606 -9.99178 2.63008
thorax -5.83071 -4.85446 3.69038
lowerneck -5.72742 -11.7298 -10.5492
upperneck 41.1844 -18.4697 4.29721
head 17.6776 -9.012 0.552706
rclavicle 1.16587e-013 1.03368e-014
rhumerus -82.2137 40.6589 -98.9547
rradius 119.112
rwrist 3.41192
rhand 3.18511 -27.8408
rfingers 7.12502
rthumb 28.6374 -55.6663
lclavicle 1.16587e-013 1.03368e-014
lhumerus -102.103 -83.8825 190.086
lradius 78.7433
lwrist 52.7993
lhand 22.891 -8.14365
lfingers 7.12502
lthumb 47.2181 14.4259
rfemur 0.20499 17.5089 29.9138
rtibia 9.94666
rfoot -17.1409 -28.7287
rtoes 6.19157
lfemur 5.84002 -35.5248 -9.7479
ltibia -3.26473
lfoot -9.22314 32.079
ltoes -14.1679
552
root 0.522936 17.5262 9.48335 2.64601 11.0864 -9.42157
lowerback 0.538821 -7.4976 -0.799056
upperback -5.86766 -9.95204 2.62964
thorax -5.7947 -4.83656 3.67554
lowerneck -5.7249 -11.7453 -10.5905
upperneck 41.1528 -18.5125 4.36987
head 17.6819 -9.02681 0.582465
rclavicle 2.6339e-014 -2.14687e-014
rhumerus -82.1025 40.2989 -98.7637
rradius 119.016
rwrist 4.84223
rhand -0.117094 -26.9686
rfingers 7.12502
rthumb 25.4782 -55.2855
lclavicle 2.6339e-014 -2.14687e-014
lhumerus -100.269 -83.9285 188.212
lradius 78.8478
lwrist 52.0531
lhand 23.0068 -8.2841
lfingers 7.12502
lthumb 47.3252 14.2375
rfemur 0.187916 17.5074 29.9316
rtibia 9.98047
rfoot -17.1577 -28.6622
rtoes 6.20084
lfemur 5.93977 -35.5732 -9.76284
ltibia -3.36867
lfoot -9.10292 32.2024
ltoes -14.3483
553
root 0.522436 17.5268 9.48583 2.64929 11.0152 -9.43869
lowerback 0.536354 -7.4779 -0.798707
upperback -5.85588 -9.92505 2.6443
thorax -5.7798 -4.82332 3.68761
lowerneck -5.69679 -11.7425 -10.6233
upperneck 41.1336 -18.5163 4.40614
head 17.675 -9.0302 0.604975
rclavicle -1.35571e-013 1.82882e-014
rhumerus -82.0303 39.9993 -98.5788
rradius 118.921
rwrist 5.9336
rhand -1.48641 -26.1878
rfingers 7.12502
rthumb 24.1659 -54.6855
lclavicle -1.35571e-013 1.82882e-014
lhumerus -99.5026 -83.8979 187.378
lradius 79.0955
lwrist 52.2115
lhand 22.1248 -8.13172
lfingers 7.12502
lthumb 46.5091 14.7478
rfemur 0.1884 17.573 29.9572
rtibia 9.98077
rfoot -17.1469 -28.6432
rtoes 6.22805
lfemur 6.03586 -35.5931 -9.76655
ltibia -3.47015
lfoot -9.12365 32.2955
ltoes -14.062
554
root 0.522104 17.527 9.48813 2.6614 10.9538 -9.4746
lowerback 0.530216 -7.4363 -0.740614
upperback -5.84302 -9.86759 2.63087
thorax -5.7781 -4.79796 3.63927
lowerneck -5.69871 -11.7591 -10.571
upperneck 41.1008 -18.5476 4.4094
head 17.6526 -9.03524 0.593633
rclavicle 5.96354e-016 6.36111e-015
rhumerus -81.9432 39.5973 -98.3673
rradius 118.786
rwrist 7.41637
rhand -2.03733 -25.1266
rfingers 7.12502
rthumb 23.6376 -53.6935
lclavicle 5.96354e-016 6.36111e-015
lhumerus -99.9166 -83.8527 187.676
lradius 79.3718
lwrist 52.913
lhand 22.8547 -7.27583
lfingers 7.12502
lthumb 47.1846 15.3086
rfemur 0.182983 17.6055 29.9978
rtibia 9.95571
rfoot -17.0626 -28.6247
rtoes 6.06701
lfemur 6.05974 -35.5783 -9.72969
ltibia -3.483
lfoot -9.18645 32.3367
ltoes -13.9604
555
root 0.522054 17.5269 9.49054 2.68695 10.9159 -9.47858
lowerback 0.518075 -7.41712 -0.707396
upperback -5.82625 -9.84161 2.60893
thorax -5.76426 -4.78763 3.59512
lowerneck -5.77722 -11.7566 -10.5059
upperneck 41.0926 -18.5549 4.42628
head 17.661 -9.02297 0.584271
rclavicle -1.15295e-014 1.74931e-014
rhumerus -81.8493 39.1706 -98.1224
rradius 118.652
rwrist 9.79433
rhand -2.08298 -23.59
rfingers 7.12502
rthumb 23.5938 -52.1625
lclavicle -1.15295e-014 1.74931e-014
lhumerus -100.877 -83.8331 188.456
lradius 79.7069
lwrist 53.7707
lhand 24.6911 -5.64996
lfingers 7.12502
lthumb 48.8774 16.1429
rfemur 0.166427 17.5495 29.9891
rtibia 9.93822
rfoot -16.999 -28.5649
rtoes 5.84304
lfemur 6.07852 -35.6292 -9.74437
ltibia -3.48749
lfoot -9.16677 32.4041
ltoes -14.0997
556
root 0.521291 17.5265 9.49334 2.69524 10.8908 -9.45907
lowerback 0.530114 -7.40022 -0.6909
upperback -5.81196 -9.81991 2.57433
thorax -5.76595 -4.77842 3.55097
lowerneck -5.8911 -11.7631 -10.5148
upperneck 41.1375 -18.6013 4.51487
head 17.7378 -9.02558 0.603729
rclavicle -9.16397e-014 -5.56597e-015
rhumerus -81.7987 38.6217 -97.7995
rradius 118.619
rwrist 12.7679
rhand -1.4393 -21.7667
rfingers 7.12502
rthumb 24.2111 -50.2583
lclavicle -9.16397e-014 -5.56597e-015
lhumerus -100.857 -83.8431 188.245
lradius 79.8975
lwrist 53.9319
lhand 24.1372 -5.51247
lfingers 7.12502
lthumb 48.3678 16.5269
rfemur 0.18343 17.5351 29.9686
rtibia 9.91781
rfoot -17.0269 -28.5221
rtoes 5.90523
lfemur 6.13498 -35.6913 -9.80245
ltibia -3.51008
lfoot -9.17778 32.4884
ltoes -13.9086
557
root 0.518906 17.5257 9.49665 2.67794 10.8631 -9.50498
lowerback 0.610333 -7.34291 -0.568937
upperback -5.8546 -9.74078 2.5151
thorax -5.89178 -4.74262 3.44056
lowerneck -5.88606 -11.7948 -10.5296
upperneck 41.2025 -18.7041 4.60771
head 17.8059 -9.0572 0.623402
rclavicle -9.93923e-015 8.74653e-015
rhumerus -81.8994 37.8715 -97.5027
rradius 118.676
rwrist 15.332
rhand -0.841058 -20.0348
rfingers 7.12502
rthumb 24.7845 -48.4489
lclavicle -9.93923e-015 8.74653e-015
lhumerus -101.32 -83.7644 188.518
lradius 80.029
lwrist 53.8273
lhand 20.7851 -6.61843
lfingers 7.12502
lthumb 45.2657 16.7757
rfemur 0.225367 17.6029 30.0515
rtibia 9.90312
rfoot -17.0959 -28.5342
rtoes 6.17726
lfemur 6.22437 -35.7339 -9.7762
ltibia -3.57844
lfoot -9.21202 32.5716
ltoes -13.6619
